<?xml version="1.0" encoding="utf-8"?>
<!-- Generator: Adobe Illustrator 15.1.0, SVG Export Plug-In . SVG Version: 6.00 Build 0)  -->
<!DOCTYPE svg PUBLIC "-//W3C//DTD SVG 1.1//EN" "http://www.w3.org/Graphics/SVG/1.1/DTD/svg11.dtd">
<svg version="1.1" id="Layer_1" xmlns="http://www.w3.org/2000/svg" xmlns:xlink="http://www.w3.org/1999/xlink" x="0px" y="0px"
	 width="229.717px" height="38.603px" viewBox="0 0 229.717 38.603" enable-background="new 0 0 229.717 38.603"
	 xml:space="preserve">
<g>
	<defs>
		<rect id="SVGID_1_" y="0" width="229.717" height="38.602"/>
	</defs>
	<clipPath id="SVGID_2_">
		<use xlink:href="#SVGID_1_"  overflow="visible"/>
	</clipPath>
	<path clip-path="url(#SVGID_2_)" fill="#928A80" d="M16.389,17.248c0.237,0,0.474,0.099,0.608,0.303
		c0.136,0.167,0.17,0.438,0.1,0.676l-5.946,19.53c-0.101,0.339-0.406,0.545-0.743,0.545H6.656c-0.337,0-0.64-0.206-0.743-0.545
		L0.032,18.194c-0.067-0.205-0.033-0.476,0.135-0.643c0.138-0.204,0.374-0.303,0.611-0.303h3.851c0.337,0,0.641,0.203,0.742,0.539
		l3.246,12.436l3.346-12.436c0.067-0.336,0.371-0.539,0.708-0.539H16.389z"/>
	<path clip-path="url(#SVGID_2_)" fill="#928A80" d="M23.181,17.248c0.406,0,0.78,0.336,0.78,0.776v19.534
		c0,0.402-0.374,0.744-0.78,0.744h-3.583c-0.402,0-0.743-0.342-0.743-0.744V18.024c0-0.44,0.341-0.776,0.743-0.776H23.181z"/>
	<path clip-path="url(#SVGID_2_)" fill="#928A80" d="M33.215,16.98c1.996,0,3.413,0.471,4.124,0.671l0.169,0.067
		c0.338,0.106,0.575,0.408,0.541,0.778l-0.171,2.975c0,0.237-0.133,0.473-0.337,0.606c-0.202,0.14-0.439,0.17-0.675,0.069
		l-0.202-0.069c-0.812-0.336-1.826-0.709-3.176-0.709c-0.913,0-1.962,0.27-1.962,1.521c0,0.977,0.574,1.35,1.689,1.961l2.098,1.183
		c2.364,1.352,3.75,2.736,3.75,5.913c0,4.091-2.805,6.657-7.3,6.657c-2.163,0-3.751-0.337-4.833-0.981
		c-0.236-0.167-0.405-0.44-0.371-0.706l0.203-3.176c0-0.273,0.168-0.51,0.406-0.644c0.234-0.136,0.542-0.103,0.743,0.031
		c0.404,0.274,1.858,1.084,3.752,1.084c0.639,0,2.197-0.206,2.197-2.063c0-0.913-0.408-1.349-2.163-2.297l-1.792-1.016
		c-2.432-1.318-3.582-3.206-3.582-5.776C26.323,19.48,29.162,16.98,33.215,16.98"/>
	<path clip-path="url(#SVGID_2_)" fill="#928A80" d="M45.416,17.248c0.403,0,0.776,0.336,0.776,0.776v19.534
		c0,0.402-0.373,0.744-0.776,0.744h-3.585c-0.403,0-0.741-0.342-0.741-0.744V18.024c0-0.44,0.338-0.776,0.741-0.776H45.416z"/>
	<path clip-path="url(#SVGID_2_)" fill="#928A80" d="M60.926,17.248c0.405,0,0.743,0.336,0.743,0.741v2.84
		c0,0.437-0.338,0.775-0.743,0.775h-3.582v15.953c0,0.402-0.338,0.744-0.743,0.744h-3.583c-0.439,0-0.776-0.342-0.776-0.744V21.604
		h-3.584c-0.439,0-0.777-0.339-0.777-0.775v-2.84c0-0.405,0.338-0.741,0.777-0.741H60.926z"/>
	<path clip-path="url(#SVGID_2_)" fill="#928A80" d="M78.16,17.248c0.439,0,0.777,0.336,0.777,0.776v19.534
		c0,0.402-0.338,0.744-0.777,0.744h-4.259c-0.303,0-0.575-0.172-0.71-0.475l-5.069-11.895v11.625c0,0.402-0.337,0.744-0.742,0.744
		h-3.244c-0.44,0-0.777-0.342-0.777-0.744V18.024c0-0.44,0.337-0.776,0.777-0.776h4.259c0.302,0,0.572,0.203,0.676,0.47
		l5.102,12.032V18.024c0-0.44,0.337-0.776,0.741-0.776H78.16z"/>
	<path clip-path="url(#SVGID_2_)" fill="#928A80" d="M98.029,27.79c0,7.976-4.597,10.779-8.55,10.779
		c-3.921,0-8.516-2.804-8.516-10.779c0-7.977,4.595-10.811,8.516-10.811C93.432,16.979,98.029,19.813,98.029,27.79 M92.824,27.79
		c0-3.007-0.572-6.559-3.345-6.559c-2.737,0-3.312,3.552-3.312,6.559c0,2.363,0.372,4.122,1.081,5.239
		c0.542,0.876,1.284,1.279,2.231,1.279C92.252,34.309,92.824,30.766,92.824,27.79"/>
	<path clip-path="url(#SVGID_2_)" fill="#928A80" d="M114.419,37.557c0,0.134-0.07,0.303-0.171,0.438
		c-0.133,0.206-0.373,0.309-0.608,0.309h-3.782c-0.34,0-0.643-0.206-0.746-0.546l-1.927-6.353c-0.336-1.111-0.876-1.521-1.991-1.521
		h-0.036c0.036,0,0,7.673,0,7.673c0,0.403-0.337,0.746-0.776,0.746h-3.584c-0.404,0-0.741-0.343-0.741-0.746V17.989
		c0-0.404,0.337-0.741,0.741-0.741h6.117c4.158,0,6.555,2.129,6.555,5.878c0,2.164-1.045,3.921-2.736,4.8
		c0.406,0.406,0.775,1.016,1.082,1.891l2.533,7.501C114.386,37.384,114.419,37.454,114.419,37.557 M108.27,23.528
		c0-1.585-0.543-2.023-2.434-2.023h-0.678v4.224h0.678C107.458,25.729,108.27,24.986,108.27,23.528"/>
	<path clip-path="url(#SVGID_2_)" fill="#928A80" d="M138.038,17.248c0.236,0,0.438,0.099,0.612,0.268
		c0.13,0.17,0.167,0.406,0.13,0.646l-4.019,19.528c-0.069,0.373-0.373,0.611-0.745,0.611h-4.292c-0.372,0-0.676-0.238-0.744-0.611
		l-2.194-12.161l-2.367,12.161c-0.067,0.373-0.37,0.611-0.743,0.611h-4.224c-0.34,0-0.676-0.238-0.742-0.611l-3.922-19.565
		c-0.067-0.203,0-0.439,0.136-0.609c0.17-0.169,0.373-0.268,0.61-0.268h3.342c0.373,0,0.679,0.236,0.746,0.606l2.06,11.288
		l2.198-11.288c0.069-0.37,0.369-0.606,0.745-0.606h4.355c0.372,0,0.679,0.236,0.744,0.606l2.197,11.324l2.131-11.324
		c0.067-0.37,0.37-0.606,0.742-0.606H138.038z"/>
	<path clip-path="url(#SVGID_2_)" fill="#928A80" d="M155.914,37.993c-0.133,0.206-0.371,0.309-0.608,0.309h-3.683
		c-0.339,0-0.645-0.238-0.741-0.545l-1.186-4.154h-5.576l-1.252,4.154c-0.097,0.307-0.402,0.545-0.741,0.545h-3.582
		c-0.237,0-0.474-0.103-0.606-0.309c-0.137-0.2-0.17-0.473-0.101-0.706l6.555-19.5c0.097-0.336,0.373-0.539,0.71-0.539h3.921
		c0.336,0,0.606,0.236,0.706,0.539l6.325,19.53C156.117,37.558,156.085,37.793,155.914,37.993 M148.515,29.341l-1.555-5.673
		l-1.654,5.673H148.515z"/>
	<path clip-path="url(#SVGID_2_)" fill="#928A80" d="M169.265,17.248c0.235,0,0.506,0.132,0.643,0.336
		c0.066,0.134,0.099,0.27,0.099,0.405c0,0.102-0.032,0.238-0.065,0.341l-5.676,11.623v7.604c0,0.402-0.337,0.744-0.782,0.744h-3.576
		c-0.409,0-0.749-0.342-0.749-0.744v-7.707l-5.676-11.521c-0.066-0.103-0.101-0.239-0.101-0.341c0-0.135,0.034-0.271,0.134-0.405
		c0.137-0.204,0.373-0.336,0.643-0.336h3.853c0.306,0,0.542,0.132,0.679,0.403l3.105,6.354l2.909-6.319
		c0.133-0.271,0.403-0.438,0.706-0.438H169.265z"/>
	<path clip-path="url(#SVGID_2_)" fill="#928A80" d="M173.286,33.905v3.819c0,0.339-0.239,0.577-0.576,0.577h-3.818
		c-0.306,0-0.576-0.238-0.576-0.577v-3.819c0-0.303,0.271-0.573,0.576-0.573h3.818C173.047,33.332,173.286,33.603,173.286,33.905"/>
	<path clip-path="url(#SVGID_2_)" fill="#928A80" d="M184.604,16.98c2.027,0,3.749,0.536,4.594,0.844
		c0.307,0.13,0.51,0.436,0.477,0.775l-0.17,3.209c-0.036,0.27-0.169,0.473-0.406,0.606c-0.203,0.136-0.473,0.136-0.709,0.039
		l-0.236-0.137c-0.712-0.373-1.658-0.846-3.112-0.846c-3.039,0-4.764,2.297-4.764,6.319c0,3.988,1.725,6.317,4.764,6.317
		c1.388,0,2.437-0.303,3.245-0.878c0.24-0.17,0.51-0.199,0.779-0.066c0.236,0.1,0.403,0.37,0.439,0.642l0.17,3.276
		c0.033,0.303-0.136,0.576-0.373,0.713c-0.878,0.472-2.739,0.774-4.601,0.774c-5.911,0-9.728-4.224-9.728-10.778
		C174.974,21.199,178.726,16.98,184.604,16.98"/>
	<path clip-path="url(#SVGID_2_)" fill="#928A80" d="M207.448,27.79c0,7.976-4.594,10.779-8.552,10.779
		c-3.918,0-8.516-2.804-8.516-10.779c0-7.977,4.598-10.811,8.516-10.811C202.854,16.979,207.448,19.813,207.448,27.79
		 M202.242,27.79c0-3.007-0.573-6.559-3.346-6.559c-2.736,0-3.313,3.552-3.313,6.559c0,2.363,0.373,4.122,1.082,5.239
		c0.539,0.876,1.288,1.279,2.23,1.279C201.669,34.309,202.242,30.766,202.242,27.79"/>
	<path clip-path="url(#SVGID_2_)" fill="#928A80" d="M228.975,17.248c0.405,0,0.741,0.336,0.741,0.776v19.534
		c0,0.402-0.336,0.744-0.741,0.744h-3.246c-0.439,0-0.775-0.342-0.775-0.744V26.235l-3.446,11.521
		c-0.103,0.339-0.405,0.545-0.749,0.545h-2.529c-0.34,0-0.644-0.238-0.746-0.545l-3.242-11.286v11.087
		c0,0.402-0.34,0.744-0.746,0.744h-3.242c-0.439,0-0.775-0.342-0.775-0.744V18.024c0-0.44,0.336-0.776,0.775-0.776h5.339
		c0.341,0,0.644,0.236,0.743,0.576l3.313,12.026l3.412-12.026c0.104-0.34,0.373-0.576,0.713-0.576H228.975z"/>
	<rect x="137.59" y="0" clip-path="url(#SVGID_2_)" fill="#ED3426" width="25.621" height="7.722"/>
	<rect x="167.12" y="0" clip-path="url(#SVGID_2_)" fill="#1B4480" width="7.808" height="7.722"/>
	<rect x="178.83" y="0" clip-path="url(#SVGID_2_)" fill="#ED3426" width="50.887" height="7.722"/>
	<rect x="163.211" y="0" clip-path="url(#SVGID_2_)" fill="#FFFFFF" width="3.909" height="7.722"/>
	<rect x="174.929" y="0" clip-path="url(#SVGID_2_)" fill="#FFFFFF" width="3.909" height="7.722"/>
</g>
</svg>
