<svg xmlns="http://www.w3.org/2000/svg" viewBox="0 0 1198.28 463"><defs><style>.cls-1{fill:#050506;}.cls-2{fill:#eaa4a8;}.cls-3{fill:#5d5d5d;}.cls-4{fill:#c0bfbf;}.cls-5{fill:#cc2429;}</style></defs><g id="Capa_2" data-name="Capa 2"><g id="Capa_1-2" data-name="Capa 1"><path class="cls-1" d="M845,0c6.29,2.11,12.94,1.74,19.38,2.92,22.85,4.2,44,11.88,60.59,29C938,45.42,945.38,61.16,945.18,80.65c-.5,48.48-.16,97-.16,145.43,0,34.37-16.65,57.89-47.34,72-15.83,7.29-32.76,9.54-50,10.2-24.47.93-48.17-2.22-70.29-13.36s-36.49-28.38-42.77-52.38a28.65,28.65,0,0,1-.73-7.41c0-53,.29-105.95-.13-158.92-.2-24.47,10.57-42.78,29.22-57.11,14.67-11.26,32-15.83,50-18,1-.13,2.42.45,3-1.08h4a47.55,47.55,0,0,0,21,0ZM803.87,198,867.44,62.4a63.83,63.83,0,0,0-16.69-8.14,43.6,43.6,0,0,0-35.7,3.16C808.58,60.91,804.23,66.16,804,74,802.71,115.26,803.23,156.54,803.87,198Zm71.07-68.3-1-.18L813.59,254.69a60.4,60.4,0,0,0,13.31,4.92c19.54,5,36.58-1.78,45.86-18.18A16.53,16.53,0,0,0,875,233c-.1-26.31-.06-52.62-.06-78.93Z"/><path class="cls-2" d="M0,28a.72.72,0,0,1,.8-.13c0,.5.14,1,.14,1.49q0,205.35,0,410.71c-.3,0-.6-.06-.91-.07Z"/><path class="cls-3" d="M841,0a47.55,47.55,0,0,1-21,0Z"/><path class="cls-4" d="M778.06,462.15,778,463H761a2.05,2.05,0,0,0,0-.89Z"/><path class="cls-4" d="M998,463c0-.28,0-.56-.06-.84l15.1,0a2.36,2.36,0,0,0,0,.88Z"/><path class="cls-5" d="M.91,440.07q0-205.35,0-410.71c0-.5-.09-1-.14-1.49C3.85,14.27,12.41,7.6,27,7.59H386.9c13,0,26,0,39,0,16.07.06,25.8,9.84,25.8,25.94q0,200,0,399.92c0,16.33-9.81,26.24-26.07,26.24q-199.71,0-399.42,0C12.77,459.7,4.38,453.1.91,440.07ZM143.25,273.4,94,425.17l128.8-93.69,126.33,92.06,1.37-1L302,273.4l127-92.56-.55-.9H423c-48.65,0-97.31-.05-146,.1-4,0-5.71-1-7-4.92q-22.43-69.89-45.27-139.65c-.56-1.72-.49-3.88-2.48-5.21q-23.76,72.73-47.28,145c-1.18,3.64-2.75,4.76-6.56,4.75q-73.47-.21-147-.06c-1.64,0-3.44-.53-5.3.72Z"/><path class="cls-1" d="M698.83,301.82H626.67c-1.24-1.63-.6-3.52-.61-5.27q-.06-43,0-86a38.9,38.9,0,0,0-3.92-17.83c-4.26-8.51-11.07-13.73-20.53-14.79-15.4-1.73-30.86-.86-46.87-.79V302.56H485.29V8.84c1.89-1,3.75-.54,5.54-.54,37.65,0,75.31-.14,113,0a133.46,133.46,0,0,1,48.3,9c33,12.9,50,37.19,49.13,76.84-.39,17.65-6.74,33.08-19.47,45.61-6.17,6.09-11,8.68-23.31,12.69,23.85,6.78,36.86,23.05,39.65,48.92,1.25,11.65.85,23.29.9,34.94.1,21.32,0,42.65,0,64C699,300.61,698.93,300.94,698.83,301.82ZM554.7,128.11c14.71,0,29-.12,43.28,0,11.24.13,18.9-5.3,24-14.85,3.7-6.94,4.54-14.56,4.37-22.26-.48-21.41-12.54-33.17-33.84-33.18H554.7Z"/><path class="cls-1" d="M982,9.32A4.17,4.17,0,0,1,983,9c43.8,0,87.63-.62,131.42.3,23.49.49,45,8.41,62.43,25.16,9.42,9.07,15.73,20.09,19.85,32.44a21.44,21.44,0,0,1,.77,6.9q0,76.71,0,153.43c0,27.61-12.82,48.39-35.36,63.28-15.81,10.44-33.89,13.06-52.53,12.89-28.14-.25-56.29-.36-84.44-.49-14.29-.06-28.59,0-43.2,0Zm70.23,242.6c17.2,0,34.17.5,51.09-.17,12-.49,22.07-12.62,22.07-24.95q0-69.48,0-139c0-13.55-9.36-24.42-22.7-27-5.69-1.1-11.29-.31-16.93-.35-11.11-.07-22.23,0-33.53,0Z"/><path class="cls-1" d="M1095.4,390.72v69.15h-30.65V325H1107q12,45.34,23.92,90.53l.83,0q11.12-45.18,22.27-90.54h44.23V459.06H1168V389.89l-.88-.25c-1,2.31-2.11,4.6-3.08,6.94-8.21,19.95-16.47,39.87-24.53,59.88-1.3,3.23-2.92,4.48-6.51,4.38-9.41-.25-9.42,0-12.86-8.86q-11.6-29.67-23.14-59.36C1096.75,391.87,1096.69,391,1095.4,390.72Z"/><path class="cls-1" d="M778.06,462.15l-17.1,0c-3.12-.51-6.28-.81-9.34-1.56-18.38-4.52-28-16.53-28.21-35.95-.28-23.65-.46-47.31-.12-71,.2-14.3,7.94-24.4,21-29.39,20.67-7.89,41.82-7.9,62.37.36,14.35,5.77,21.67,17,21.28,32.86-.11,4.28,0,8.57,0,13.09H794c0-3.16-.16-6.26,0-9.35a11.51,11.51,0,0,0-2.85-8.24c-7.76-9.76-26.75-9.14-33.87,1.09a12.42,12.42,0,0,0-2.3,7.46c.08,21.49.12,43,0,64.47,0,5.06,2.25,8.22,6.68,10a33.2,33.2,0,0,0,20.57,1.41c9-2.19,11.74-6,11.74-15.11,0-5.16-.19-10.34.06-15.49.2-4-1.87-5.72-5.2-6.79-4.37-1.41-8.91-.6-13.67-1.06V379.36h52.33v81.37c-4.94,0-9.72,0-14.5,0-2.26,0-2.49-1.81-3.2-3.22-.88-1.75-1.74-3.51-2.65-5.37C799.44,461.82,788.35,460.79,778.06,462.15Z"/><path class="cls-1" d="M676.54,325.11h30.23V460.5c-9.59,0-19.06,0-28.52,0-2.53,0-2.73-2-3.49-3.6Q655.4,417.35,636,377.76a4.33,4.33,0,0,0-2-2.24v84.26H604.13v-135c9.27,0,18.38.13,27.48-.07,3.08-.07,3.44,2.15,4.32,4q18.95,39.22,37.83,78.49c.68,1.42.92,3.17,2.78,4.4Z"/><path class="cls-1" d="M843.52,460.21V325.47a4.35,4.35,0,0,1,1.39-.58c19.82,0,39.66-.55,59.46.16,16.46.59,29.91,7.29,37.06,23.35a18.39,18.39,0,0,1,1.57,7.71c-.06,22.82,0,45.64,0,68.46,0,18.61-13.17,33.57-31.76,35.39-16.77,1.64-33.6-.08-50.4.23C855.17,460.29,849.53,460.21,843.52,460.21Zm32.56-23.35c7.66,0,14.79.14,21.92,0A11.79,11.79,0,0,0,909.74,425q.21-31.93,0-63.87c0-6.07-4.33-11.57-10-12-7.85-.58-15.78-.15-23.67-.15Z"/><path class="cls-1" d="M1013,462.12l-15.1,0c-10.88-1.2-21.38-3.64-30.13-10.65-8.31-6.65-13.15-15-13-26.19q.46-33.48,0-67c-.19-12.93,5.92-21.79,16.35-28.27,6.64-4.12,14.1-5.83,21.81-6.48,13.29-1.13,26.3,0,38.7,5.22,15.84,6.66,22.89,17.33,22.89,34.31,0,19.5-.59,39,.16,58.49.86,22.1-13.36,35.49-33.29,39.33C1018.67,461.46,1015.84,461.73,1013,462.12Zm-25.29-68.78v32c0,8.57,6.81,14.55,16.54,14.55,9,0,15.76-6.09,15.77-14.38,0-21.32-.1-42.64.08-64,.05-5.41-2.51-8.85-6.72-11.31-5.49-3.2-11.45-3.33-17.37-1.42-5.71,1.84-8.27,5.56-8.29,11.56C987.72,371.35,987.75,382.35,987.75,393.34Z"/><path class="cls-1" d="M553.2,325.17h32.86v92c0,19.1-9.73,33.28-27.91,39.2C541,461.94,523.64,462,506.89,455c-15.63-6.55-23.72-18.83-23.79-35.9-.12-31.13,0-62.26,0-93.75h32.57c1,1.47.44,3.35.44,5.1q.06,45.22,0,90.44c0,6.69,2.51,10.21,8.93,12a31,31,0,0,0,18.68-.49c6.93-2.42,9.48-6,9.48-13.3V325.17Z"/></g></g></svg>