<svg xmlns="http://www.w3.org/2000/svg" viewBox="0 0 125.18 28.5"><defs><style>.cls-1{fill:#030304;}.cls-2{fill:#020303;}.cls-3{fill:#060708;}.cls-4{fill:#faecef;}.cls-5{fill:#9f9f9f;}.cls-6{fill:#989999;}.cls-7{fill:#9d9d9d;}.cls-8{fill:#999;}.cls-9{fill:#2b2c2c;}.cls-10{fill:#99999a;}.cls-11{fill:#9a9a9a;}.cls-12{fill:#ececec;}.cls-13{fill:#1b181c;}.cls-14{fill:#020202;}.cls-15{fill:#030303;}.cls-16{fill:#060707;}.cls-17{fill:#010102;}.cls-18{fill:#010202;}.cls-19{fill:#040405;}.cls-20{fill:#040505;}.cls-21{fill:#070808;}.cls-22{fill:#0d0d0e;}.cls-23{fill:#050607;}.cls-24{fill:#060607;}.cls-25{fill:#050505;}.cls-26{fill:#c0192c;}.cls-27{fill:#bf1922;}.cls-28{fill:#050606;}.cls-29{fill:#c2182e;}.cls-30{fill:#010101;}.cls-31{fill:#bf191c;}.cls-32{fill:#c51733;}.cls-33{fill:#aeadad;}.cls-34{fill:#c51734;}.cls-35{fill:#c01929;}.cls-36{fill:#111212;}.cls-37{fill:#0c090d;}.cls-38{fill:#f6f6f6;}.cls-39{fill:#f1f1f1;}.cls-40{fill:#fbfbfb;}.cls-41{fill:#c0192a;}</style></defs><g id="Capa_2" data-name="Capa 2"><g id="Capa_1-2" data-name="Capa 1"><path class="cls-1" d="M102.54,28.5c-.29-.08-.58-.18-.87-.25-1.8-.43-3.77-.86-3.8-3.16s1.95-2.84,3.74-3.23a12.25,12.25,0,0,1,6.16.2c1.54.46,3,1.1,3,3s-1.5,2.51-3,3c-.5.16-1,.29-1.49.43Zm1.68-1.07c1.61-.3,3.72-.13,3.75-2.35s-2-2.32-3.64-2.3-3.64-.05-3.62,2.29S102.78,27,104.22,27.43Z"/><path class="cls-2" d="M114.56,28.19V21.86c3.87-.88,5.29,2.88,8.15,4.08v-4.1h2.47v6.39l-2.71.06-5.26-4-.39,3.92Z"/><path class="cls-3" d="M0,21.84H9.79v1.07h-7v1.38H9.29v1.2H2.77v1.68h7.34v1H0V28a13.13,13.13,0,0,0,0-5.85Z"/><path class="cls-4" d="M8.05.21l.33,6.71H0L.27,0V.3l0,6.1a15.68,15.68,0,0,0,7.7,0L8,.27Z"/><path class="cls-4" d="M35.16,0l0,.33a.39.39,0,0,0-.24,0,.21.21,0,0,0-.25,0H16a.36.36,0,0,0-.25,0V0Z"/><path class="cls-5" d="M94,21.82l.24,6.68H91.35v-7l2.69.27H91.62v6.33H94Z"/><path class="cls-6" d="M0,28.23H10.11v.28Z"/><path class="cls-6" d="M52.46,28.22v.28H42.35l0-.3Z"/><path class="cls-4" d="M.28.3V0H8a.83.83,0,0,0,.06.21L8,.27a.59.59,0,0,0-.26,0Z"/><path class="cls-4" d="M.32,20,0,20V13.05H.3C.31,15.36.31,17.66.32,20Z"/><path class="cls-7" d="M117.21,24.27c0,1.41,0,2.82,0,4.23h-2.67l0-.31h2.26Z"/><path class="cls-8" d="M63.15,28.27l0,.23H56.46l0-.3Z"/><path class="cls-9" d="M0,22.11A13.13,13.13,0,0,1,0,28Z"/><path class="cls-10" d="M16.23,28.22l0,.28H12.78l.53-.54Z"/><path class="cls-11" d="M21.84,28.5a.69.69,0,0,0,0-.25L24.74,28l.3.51Z"/><path class="cls-8" d="M30.89,28.22v.28H28.23l0-.3Z"/><path class="cls-11" d="M74.24,28.17l.07.33H71.64a.2.2,0,0,1,0-.25Z"/><path class="cls-8" d="M84.13,28.2l0,.3H81.5v-.28Z"/><path class="cls-6" d="M122.51,28.5a.22.22,0,0,1,0-.21l2.71-.06Z"/><path class="cls-12" d="M.28,10.91H0V8.79l.34,0a.6.6,0,0,0,0,.23l0,.26v1.34A.36.36,0,0,0,.28,10.91Z"/><path class="cls-13" d="M.31,10.66V9.32H10V9.06H.35a.6.6,0,0,1,0-.23l10.21-.07c1-2.56-.1-5.27.53-7.78L12.79.51l.4,8.34H35.06v2.08h-22v8.82H10.36V10.93Z"/><path class="cls-14" d="M37.38,1.23h3.31c3.13,3.1,3.87,6.82,3.12,11.09l-3-4.75V19.38H37.38Z"/><path class="cls-14" d="M48.43,1.26h3.45V19.42H48.39c-3-2.58-1.88-5.93-2.09-9.46l2.13,3.38Z"/><path class="cls-14" d="M103.18,19.51h-3l3.5-9.09h2.78L105.22,14h3.68l-1.29-3.6h2.82c1.19,3,2.4,6,3.64,9.1h-3l-1.24-3h-5.53Z"/><path class="cls-14" d="M83.13,19.51H80c-2.3-1.81-2.36-5.9-6.46-5.73v5.7H70.77v-9h2.65l.22,1.11c1.9-.37,4,.75,5.57-1.16h2.71c-.33,1.84-1.55,2.61-3.34,3C80.65,15,81.66,17.28,83.13,19.51Z"/><path class="cls-14" d="M65.46,10.41h2.86c.4,3.09.43,6.08-2.33,8.11a6.87,6.87,0,0,1-8,.26c-3.12-1.92-3.11-5.07-2.75-8.34h2.92c-.17,2.33-.67,4.71,1.59,6.35a3.37,3.37,0,0,0,3.89.15C66.13,15.39,65.61,12.86,65.46,10.41Z"/><path class="cls-15" d="M81.59,8.49H80.18V1.26c1.8.49,4-1,5.23,1.23a1.94,1.94,0,0,1-1.28,2.9L85.9,7.92l2.38-6.55h1.47c.88,2.31,1.77,4.66,2.69,7.1H91L90.41,7H87.76l-.64,1.51H84.58c-1-.83-1.06-2.73-3-3Zm2.49-5.81-2.49-.14V4.48l2.49-.23ZM89,3l-.89,2.63h1.78Z"/><path class="cls-2" d="M63.15,28.27l-6.66-.07V21.85c2.55,0,5-.16,7.48,0,1.9.18,3.86.94,3.63,3.37C67.36,27.85,65.18,28.06,63.15,28.27Zm-4-1c1.91-.38,4,.74,5.43-1.13a1.83,1.83,0,0,0-.14-2.37c-1.54-1.49-3.48-.69-5.29-.88Z"/><path class="cls-14" d="M91.78,10.42c-.83,3.14-1.61,6.07-2.41,9.07H86.29c-.71-2.94-1.42-5.93-2.16-9h2.79c.32,1.44.64,2.85,1,4.65l1.29-4.69Z"/><path class="cls-14" d="M95,10.44c.38,1.46.77,2.93,1.26,4.8.42-1.84.74-3.28,1.09-4.79h2.7c-.72,3-1.44,5.95-2.17,9H94.83c-.78-2.9-1.58-5.91-2.41-9Z"/><path class="cls-16" d="M52.46,28.22l-10.08,0V21.81h9.76l.13,1.06H45.12v1.42h6.5v1.2H45.11v1.68h7.35Z"/><path class="cls-2" d="M24.74,28l-2.92.26L19,26.13l-2.75,2.09L13.31,28l4.06-3-3.86-3c2.29-.75,3.9.32,5.44,1.81,1.6-1.32,3.17-2.65,5.53-1.8l-3.88,3Z"/><path class="cls-17" d="M30.89,28.22l-2.63,0V21.64c2.86.13,5.63.2,8.39.43a1.71,1.71,0,0,1,1.8,1.76c0,1.15-1,1.59-1.9,1.72-1.82.24-3.67.31-5.66.46Zm5-4.45c-1.64-1.45-3.36-.64-4.92-.88v1.89C32.63,24.53,34.38,25.33,35.91,23.77Z"/><path class="cls-18" d="M120.39,19.54h-3c.88-3.48-1.16-6.13-2.6-9.09h3l1.2,2.65,1.21-2.66h2.76C121.7,13.38,119.29,15.94,120.39,19.54Z"/><path class="cls-14" d="M84.13,28.2l-2.62,0V22.94H77.57V21.81H88l.06,1.06h-4Z"/><path class="cls-3" d="M58.67,5.94l-1.41-.09V4.77H60V7.64C58.6,8.78,57,9.22,55.32,8.18s-1.81-2.76-1.38-4.49a3,3,0,0,1,3.17-2.46A2.64,2.64,0,0,1,60,3.59c-2.22-.64-5.16-2.65-4.81,2a1.8,1.8,0,0,0,2,1.88C58,7.37,58.85,7.26,58.67,5.94Z"/><path class="cls-19" d="M72.75,5.88c-.39,2-1.63,3.06-3.64,2.8-2.31-.31-2.93-2-2.82-4.07.1-1.82.83-3.16,2.85-3.34s3.3.88,3.62,3Zm-1.37-.43c0-1.78-.33-2.93-1.78-3S67.66,3.64,67.67,5,68,7.37,69.48,7.41,71.35,6.23,71.38,5.45Z"/><path class="cls-20" d="M73.18,4a3,3,0,0,1,3.08-2.72c1.46-.06,2.61.37,3,2.08l-1.25.24c-.65-1.08-1.54-1.48-2.58-.82-1.29.82-1.06,2.16-.78,3.36a1.66,1.66,0,0,0,2,1.31C77.44,7.29,78.27,7.13,78,6l-1.45-.12V4.78H79.3V7.63c-2.49,2-5.3,1.26-6.12-1.74Z"/><path class="cls-21" d="M65.74,1.4V2.52H62.23V4.11h3.22V5.36H62.24V7.31h3.6L66,8.48H60.83V1.4Z"/><path class="cls-22" d="M102.46,5.43H99.78V8.49l-1.36.07V1.42h1.31V4.13h2.64V1.43h1.36V8.48h-1.27Z"/><path class="cls-23" d="M119,8.5h-1.46L117,7h-2.67l-.61,1.51H112.3l2.55-7.1h1.51Zm-4.33-2.86h1.8L115.62,3Z"/><path class="cls-19" d="M94,5.85V8.46H92.72V1.28c1.76.52,4.4-1.22,5,1.88C98.21,5.83,96.11,5.94,94,5.85Zm0-1.23c.94-.18,2.28.39,2.27-1s-1.35-.88-2.27-1Z"/><path class="cls-24" d="M111.12,5.91l1.19.46a2.6,2.6,0,0,1-3,2.3c-2-.24-2.77-1.68-2.77-3.58s.44-3.41,2.52-3.78a2.52,2.52,0,0,1,3.26,2l-1.16.33c-.54-.74-1.06-1.54-2.13-1-1.27.61-1.13,1.79-1.08,2.89,0,.89.35,1.69,1.34,1.91S110.7,6.82,111.12,5.91Z"/><path class="cls-16" d="M74.24,28.17l-2.61.08V21.83h2.61Z"/><path class="cls-25" d="M119.33,1.42h1.28V7.33H124l.1,1.15h-4.72Z"/><path class="cls-26" d="M34.62,13.09l.27,0v6.56H16a1,1,0,0,0,0-.24H34.53V13.58H16v-.26c1.1,0,2.21,0,3.31,0Z"/><path class="cls-27" d="M34.89,6.68l-19.1,0a2.43,2.43,0,0,1,.2-.25H34.62l.22,0Z"/><path class="cls-28" d="M105.93,8.5h-1.25V1.38l1.25-.06Z"/><path class="cls-29" d="M.32,20c0-2.29,0-4.59,0-6.89H8v6.66l-.28-6.4H.63v6.36H7.74l.26.05Z"/><path class="cls-29" d="M16,19.68H34.89V13.12c.1,2.21.21,4.42.31,6.57H16Z"/><path class="cls-29" d="M34.62,13.09l-15.33.22c-1.1,0-2.21,0-3.31,0,0-.08,0-.15,0-.23Z"/><path class="cls-30" d="M.31,10.66l10,.27-10.08,0A.36.36,0,0,1,.31,10.66Z"/><path class="cls-30" d="M12.79.51,11.08,1c-.63,2.51.43,5.22-.53,7.78V.51Z"/><path class="cls-31" d="M16,13.09c0,.08,0,.15,0,.23v6.12a1,1,0,0,1,0,.24h-.2Z"/><path class="cls-32" d="M34.89,6.68c0-.09,0-.18,0-.27q0-3,0-6.07a.39.39,0,0,1,.24,0Z"/><path class="cls-31" d="M16,6.39a2.43,2.43,0,0,0-.2.25q0-3.18-.07-6.35a.36.36,0,0,1,.25,0c0,.08,0,.15,0,.22V6.39Z"/><path class="cls-33" d="M73.18,4V5.89h-.43V4.23Z"/><path class="cls-34" d="M.28.3H7.73c0,.08,0,.15,0,.22H.53V6.39H.31Z"/><path class="cls-27" d="M.31,6.4H8A15.68,15.68,0,0,1,.31,6.4Z"/><path class="cls-27" d="M8,6.39H7.72V.53c0-.07,0-.14,0-.22A.59.59,0,0,1,8,.27Z"/><path class="cls-32" d="M16,.53c0-.07,0-.14,0-.22H34.63V.53Z"/><path class="cls-35" d="M34.62.53V.31a.21.21,0,0,1,.25,0q0,3,0,6.07l-.22,0V.53Z"/><path class="cls-36" d="M94,21.82v6.32H91.62V21.81H94Z"/><path class="cls-37" d="M.35,9.06H10v.26H.31Z"/><path class="cls-38" d="M84.08,2.68V4.25l-2.49.23V2.54Z"/><path class="cls-39" d="M89,3l.89,2.63H88.14Z"/><path class="cls-40" d="M35.91,23.77c-1.53,1.56-3.28.76-4.92,1V22.89C32.55,23.13,34.27,22.32,35.91,23.77Z"/><path class="cls-39" d="M114.71,5.64l.91-2.6.89,2.6Z"/><path class="cls-29" d="M16,19.44V13.58H34.53v5.86Z"/><path class="cls-29" d="M34.62.8V6.39H16V.8Z"/><path class="cls-41" d="M7.74,19.68H.63V13.32H7.72v.27H.89v5.85H7.72A1.94,1.94,0,0,0,7.74,19.68Z"/><path class="cls-27" d="M7.74,19.68a1.94,1.94,0,0,1,0-.24V13.32q.15,3.2.28,6.4H8Z"/><path class="cls-26" d="M34.62.8H16V.53H34.62Z"/><path class="cls-26" d="M7.72.53V.8H.8V6.39H.53V.53Z"/><path class="cls-29" d="M.8,6.39V.8H7.72V6.39Z"/><path class="cls-29" d="M7.72,13.59v5.85H.89V13.59Z"/></g></g></svg>